<?xml version="1.0" standalone="no"?>
<!DOCTYPE svg PUBLIC "-//W3C//DTD SVG 20010904//EN"
 "http://www.w3.org/TR/2001/REC-SVG-20010904/DTD/svg10.dtd">
<svg version="1.0" xmlns="http://www.w3.org/2000/svg"
 width="2500.000000pt" height="2500.000000pt" viewBox="0 0 2500.000000 2500.000000"
 preserveAspectRatio="xMidYMid meet">
<metadata>
Created by potrace 1.11, written by Peter Selinger 2001-2013
</metadata>
<g transform="translate(0.000000,2500.000000) scale(0.100000,-0.100000)"
fill="#000000" stroke="none">
<path d="M0 16415 c0 -2741 3 -3435 13 -3436 6 0 2456 -1 5442 -1 4742 -1
5623 2 5770 17 58 6 171 22 215 30 14 3 39 7 55 10 17 3 41 7 55 10 14 3 46
10 73 15 116 23 383 103 482 145 17 7 46 18 65 25 87 32 407 196 525 270 731
461 1254 1158 1489 1986 14 49 28 100 31 114 32 153 55 275 60 319 3 29 7 56
9 60 27 42 27 772 1 871 -2 8 -7 35 -10 60 -3 25 -7 59 -10 75 -12 66 -25 131
-30 155 -3 14 -8 36 -11 50 -3 14 -7 33 -10 42 -3 9 -7 25 -9 35 -19 92 -116
383 -159 478 -86 188 -200 409 -248 479 -4 6 -37 56 -74 111 -181 272 -430
545 -677 743 -40 31 -74 59 -77 63 -16 18 -223 158 -324 219 -245 148 -547
281 -791 350 -160 45 -226 60 -410 95 -26 5 -83 12 -230 29 -101 12 -1006 14
-5667 15 l-5548 1 0 -3435z m10875 471 c208 -58 363 -264 357 -477 -6 -223
-152 -407 -372 -470 -36 -10 -848 -13 -4137 -13 l-4091 -1 0 485 c0 266 1 487
3 490 2 3 1843 5 4092 4 3790 -1 4092 -3 4148 -18z"/>
<path d="M18089 19846 c-2 -2 -31 -7 -64 -10 -443 -46 -827 -157 -1205 -346
-185 -93 -198 -101 -380 -221 -102 -67 -252 -181 -360 -274 -46 -40 -267 -261
-305 -305 -120 -140 -226 -281 -299 -395 -21 -33 -49 -76 -61 -95 -67 -102
-196 -360 -245 -485 -13 -33 -29 -73 -35 -90 -23 -55 -92 -275 -111 -350 -14
-57 -34 -146 -38 -170 -7 -37 -25 -133 -30 -160 -2 -11 -7 -49 -11 -85 -4 -36
-9 -72 -10 -81 -2 -9 -7 -67 -11 -130 -29 -454 25 -882 162 -1304 283 -864
912 -1594 1724 -2001 69 -34 166 -79 215 -99 50 -20 99 -40 110 -45 161 -74
617 -181 875 -205 267 -25 3422 -26 3556 -1 11 2 48 7 84 11 36 3 76 8 90 10
14 3 40 7 59 9 18 3 40 8 50 10 9 3 32 8 52 10 41 5 262 60 299 74 14 5 27 10
30 10 16 -1 184 58 295 103 229 91 473 225 693 381 126 88 116 81 262 206 184
158 429 424 540 587 26 39 132 199 155 235 101 157 244 468 315 680 33 99 86
288 95 336 2 16 7 40 10 54 3 14 14 75 25 135 18 106 22 134 37 295 14 148 8
529 -12 680 -11 89 -28 194 -40 250 -3 14 -8 41 -11 60 -3 19 -12 60 -21 90
-8 30 -21 82 -29 114 -48 198 -200 566 -314 761 -16 28 -36 64 -46 80 -44 78
-245 369 -274 395 -3 3 -27 32 -55 65 -82 99 -253 271 -370 373 -395 343 -829
576 -1344 721 -91 26 -271 66 -336 75 -11 2 -38 6 -60 10 -190 33 -303 35
-1981 35 -919 0 -1673 -1 -1675 -3z m3062 -2965 c300 -97 433 -439 277 -711
-59 -104 -195 -208 -293 -226 -17 -3 -46 -8 -65 -13 -19 -4 -606 -6 -1305 -6
l-1270 2 -65 22 c-204 70 -342 258 -341 465 0 34 5 76 10 94 5 18 10 36 11 40
15 103 139 252 256 307 31 15 85 32 120 38 47 9 398 12 1331 11 l1268 -1 66
-22z"/>
<path d="M2 8592 l3 -3437 2970 1 c1634 0 3013 4 3065 7 130 10 245 23 293 33
12 2 38 6 57 9 144 19 540 127 645 175 11 5 56 23 100 41 201 80 519 262 712
405 179 133 417 353 553 509 376 432 666 1015 769 1547 46 236 53 290 67 503
10 155 5 457 -11 565 -1 14 -6 52 -10 85 -3 33 -8 67 -10 75 -3 8 -7 31 -10
50 -56 343 -165 675 -328 995 -82 162 -168 302 -285 464 -117 165 -326 394
-488 536 -43 38 -81 72 -84 76 -17 20 -344 259 -355 259 -2 0 -41 23 -87 52
-106 65 -367 196 -478 238 -47 18 -94 36 -105 41 -92 41 -422 129 -575 154
-81 13 -229 34 -280 40 -30 4 -1422 9 -3093 10 l-3037 4 2 -3437z m5793 473
c219 -57 367 -248 368 -475 0 -208 -122 -380 -328 -461 l-60 -23 -1572 -2
-1571 -1 0 488 -1 489 1553 0 c1361 0 1559 -2 1611 -15z"/>
<path d="M12968 12025 c-2 -1 -48 -5 -104 -9 -55 -4 -109 -8 -120 -10 -10 -2
-45 -7 -77 -10 -51 -6 -149 -23 -242 -41 -250 -50 -649 -190 -848 -299 -23
-13 -78 -42 -122 -66 -154 -84 -384 -242 -540 -374 -99 -83 -324 -310 -411
-414 -284 -339 -504 -734 -639 -1149 -27 -81 -89 -316 -98 -368 -37 -214 -38
-222 -52 -350 -17 -148 -22 -429 -10 -561 12 -147 14 -170 19 -210 8 -67 36
-236 40 -243 3 -4 7 -25 11 -48 3 -24 17 -84 31 -135 13 -51 27 -102 29 -112
9 -37 58 -182 93 -271 229 -591 609 -1098 1117 -1491 110 -85 269 -194 284
-194 6 0 11 -4 11 -10 0 -5 5 -10 10 -10 6 0 28 -11 51 -25 102 -65 354 -187
499 -242 163 -61 410 -134 540 -158 75 -14 201 -35 245 -40 28 -4 60 -8 72
-10 100 -16 768 -19 4593 -19 3790 0 4563 3 4590 19 3 1 32 5 65 9 33 3 98 13
145 22 47 8 96 17 110 19 32 5 270 64 290 72 8 3 20 7 25 8 42 10 215 74 326
121 334 140 628 323 930 580 84 72 303 299 387 404 122 150 109 134 173 225
203 291 375 652 470 985 39 134 76 291 84 355 4 28 9 52 10 55 2 3 7 33 10 65
4 33 9 62 10 65 10 17 20 238 20 435 0 255 -9 387 -35 530 -5 28 -12 66 -15
85 -10 62 -36 183 -51 238 -36 135 -45 164 -83 272 -22 63 -49 138 -61 165
-12 28 -29 68 -38 90 -9 22 -44 94 -77 160 -53 103 -76 145 -140 253 -51 86
-226 333 -259 368 -6 6 -36 41 -66 77 -75 91 -306 318 -410 403 -219 179 -411
304 -650 425 -200 101 -368 166 -645 249 -51 15 -246 57 -325 70 -41 6 -86 13
-100 16 -14 2 -52 6 -85 10 -33 3 -76 8 -95 11 -34 6 -8885 14 -8892 8z m8522
-2965 c121 -52 184 -99 244 -184 109 -154 124 -334 42 -502 -64 -132 -208
-239 -351 -263 -39 -6 -1481 -9 -4080 -9 -3341 0 -4031 2 -4088 13 -220 44
-385 248 -385 475 0 226 155 423 373 476 39 10 947 12 4130 11 3592 -2 4084
-4 4115 -17z"/>
</g>
</svg>
